<svg width="80" height="80" viewBox="0 0 80 80" fill="none" xmlns="http://www.w3.org/2000/svg">
<g filter="url(#filter0_d_6999_134)">
<rect x="4" y="2" width="72" height="72" rx="36" fill="#31A0FE"/>
<path d="M47.5 23.5C52.3576 23.5002 56.166 27.2938 56.166 32.167C56.1659 35.1442 54.8282 37.8928 52.373 40.8965C49.9123 43.907 46.3815 47.1122 42.0801 51.0127V51.0137L39.999 52.9072L37.9199 51.0137L37.9189 51.0127L34.8418 48.21C31.9189 45.5217 29.4715 43.1543 27.626 40.8965C25.1708 37.8928 23.8331 35.1442 23.833 32.167C23.833 27.2937 27.6422 23.5 32.5 23.5C35.2486 23.5001 37.895 24.7821 39.6201 26.792L40 27.2344L40.3789 26.792C42.1041 24.782 44.7512 23.5 47.5 23.5Z" fill="white" stroke="white"/>
</g>
<defs>
<filter id="filter0_d_6999_134" x="0" y="0" width="80" height="80" filterUnits="userSpaceOnUse" color-interpolation-filters="sRGB">
<feFlood flood-opacity="0" result="BackgroundImageFix"/>
<feColorMatrix in="SourceAlpha" type="matrix" values="0 0 0 0 0 0 0 0 0 0 0 0 0 0 0 0 0 0 127 0" result="hardAlpha"/>
<feOffset dy="2"/>
<feGaussianBlur stdDeviation="2"/>
<feColorMatrix type="matrix" values="0 0 0 0 0 0 0 0 0 0 0 0 0 0 0 0 0 0 0.1 0"/>
<feBlend mode="normal" in2="BackgroundImageFix" result="effect1_dropShadow_6999_134"/>
<feBlend mode="normal" in="SourceGraphic" in2="effect1_dropShadow_6999_134" result="shape"/>
</filter>
</defs>
</svg>
