<svg width="24" height="24" viewBox="0 0 24 24" fill="none" xmlns="http://www.w3.org/2000/svg">
<g clip-path="url(#clip0_4693_7444)">
<rect width="24" height="24" rx="12" fill="#252B42"/>
<path d="M18.6006 6.50002C18.8881 6.50002 19.0918 6.58791 19.252 6.74806C19.4121 6.90821 19.5 7.11192 19.5 7.39943C19.4999 7.68667 19.4119 7.88976 19.252 8.04982L9.78125 17.5205C9.58171 17.7201 9.37127 17.8047 9.12988 17.8047C8.88857 17.8047 8.67899 17.72 8.47949 17.5205L4.74805 13.7901C4.58791 13.6299 4.5 13.4262 4.5 13.1387C4.50007 12.8514 4.58806 12.6484 4.74805 12.4883C4.90819 12.3281 5.1119 12.2402 5.39941 12.2402C5.68676 12.2403 5.88972 12.3282 6.0498 12.4883L9.12988 15.5684L17.9502 6.74806C18.1103 6.58808 18.3133 6.50008 18.6006 6.50002Z" fill="white" stroke="white"/>
</g>
<defs>
<clipPath id="clip0_4693_7444">
<rect width="24" height="24" rx="12" fill="white"/>
</clipPath>
</defs>
</svg>
