<svg width="72" height="72" viewBox="0 0 72 72" fill="none" xmlns="http://www.w3.org/2000/svg">
<rect width="72" height="72" rx="36" fill="#F3DCD5"/>
<path d="M22.666 23.1667H49.333C50.8901 23.1667 52.1658 24.4427 52.166 25.9998V45.9998C52.166 47.5569 50.8902 48.8337 49.333 48.8337H22.666C21.109 48.8336 19.833 47.5568 19.833 45.9998V25.9998C19.8332 24.4428 21.1091 23.1669 22.666 23.1667ZM49.0684 28.9089L35.999 37.0769L22.9316 28.9089L22.166 28.4314V46.4998H49.833V28.4314L49.0684 28.9089ZM22.4014 26.4246L35.7344 34.7576L36 34.9226L36.2646 34.7576L49.5977 26.4246L51.0762 25.4998H20.9229L22.4014 26.4246Z" fill="#EC5C2E" stroke="#EC5C2E"/>
</svg>
