<svg width="72" height="72" viewBox="0 0 72 72" fill="none" xmlns="http://www.w3.org/2000/svg">
<rect width="72" height="72" rx="36" fill="#D6F1CC"/>
<path d="M42.6006 30.5C42.8881 30.5 43.0918 30.5879 43.252 30.748C43.4121 30.9082 43.5 31.1119 43.5 31.3994C43.4999 31.6867 43.4119 31.8897 43.252 32.0498L33.7812 41.5205C33.5817 41.72 33.3713 41.8047 33.1299 41.8047C32.8886 41.8046 32.679 41.72 32.4795 41.5205L28.748 37.79C28.5879 37.6299 28.5 37.4262 28.5 37.1387C28.5001 36.8514 28.5881 36.6483 28.748 36.4883C28.9082 36.3281 29.1119 36.2402 29.3994 36.2402C29.6868 36.2403 29.8897 36.3282 30.0498 36.4883L33.1299 39.5684L41.9502 30.748C42.1103 30.5881 42.3133 30.5001 42.6006 30.5Z" fill="#23856D" stroke="#23856D"/>
</svg>
