<svg width="14" height="14" viewBox="0 0 14 14" fill="none" xmlns="http://www.w3.org/2000/svg">
<path d="M12.9656 4.382L9.09357 4.046L7.58157 0.486C7.30957 -0.162 6.38157 -0.162 6.10957 0.486L4.59757 4.054L0.733566 4.382C0.029566 4.438 -0.258434 5.318 0.277566 5.782L3.21357 8.326L2.33357 12.102C2.17357 12.79 2.91757 13.334 3.52557 12.966L6.84557 10.966L10.1656 12.974C10.7736 13.342 11.5176 12.798 11.3576 12.11L10.4776 8.326L13.4136 5.782C13.9496 5.318 13.6696 4.438 12.9656 4.382ZM6.84557 9.47L3.83757 11.286L4.63757 7.862L1.98157 5.558L5.48557 5.254L6.84557 2.03L8.21357 5.262L11.7176 5.566L9.06157 7.87L9.86157 11.294L6.84557 9.47Z" fill="#737373"/>
</svg>
